<svg xmlns="http://www.w3.org/2000/svg" fill="none" viewBox="0 0 54 54"><path stroke="#B0D9D4" stroke-linecap="round" stroke-linejoin="round" stroke-width="2" d="M1 27h2.889M27 1v2.889M50.111 27H53M8.511 8.511l2.022 2.022M45.49 8.511l-2.022 2.022M18.336 38.556a14.445 14.445 0 1 1 17.334 0 10.11 10.11 0 0 0-2.89 8.666 5.778 5.778 0 0 1-11.555 0 10.111 10.111 0 0 0-2.889-8.666Z"/><path fill="url(#a)" d="M17.4 39.929a16.07 16.07 0 0 1-5.672-8.066 16.139 16.139 0 0 1 .093-9.874c1.062-3.2 3.1-5.983 5.824-7.955A15.952 15.952 0 0 1 27 11c3.358 0 6.631 1.061 9.355 3.034a16.067 16.067 0 0 1 5.824 7.955 16.139 16.139 0 0 1 .093 9.874A16.07 16.07 0 0 1 36.6 39.93c-1.25 1.242-2.044-.104-2.6 1.571-.197.592-.411.547-.595.32-.613-.76-.24.131-.995-.487-.221-.181-.517-.227-.91.167-1.2 1.206-2.803 0-4.5 0s-.8 1.206-2 0c-.484-.486-.902-.303-1.23-.024-.742.634-.73-.508-1.394.209-.303.327-.645.511-.876-.185-.556-1.675-2.85-.33-4.1-1.571Z"/><path stroke="#B0D9D4" stroke-linecap="round" stroke-linejoin="round" stroke-width="2" d="M20 41h14M22 45h10M22 49h10"/><defs><linearGradient id="a" x1="11" x2="43" y1="56" y2="56" gradientUnits="userSpaceOnUse"><stop stop-color="#C6E51B"/><stop offset="1" stop-color="#F3FFB3"/></linearGradient></defs></svg>