<svg xmlns="http://www.w3.org/2000/svg" fill="none" viewBox="0 0 63 55"><path stroke="#9BC4C0" stroke-linecap="round" stroke-linejoin="round" stroke-width="2" d="M1.18 1.804c0-.443.323-.804.72-.804h28.42c.163 0 .325.063.451.176l9.005 8.03c.172.153.27.384.27.627a.838.838 0 0 1-.27.628l-9.005 8.03a.672.672 0 0 1-.45.176H1.9c-.398 0-.721-.361-.721-.804V1.803ZM1.18 37.137c0-.443.349-.804.778-.804h48.797c.178 0 .35.063.486.177l9.713 8.031a.811.811 0 0 1 .292.628.811.811 0 0 1-.292.627l-9.713 8.028a.757.757 0 0 1-.486.176H1.958a.792.792 0 0 1-.778-.804V37.137Z"/><path fill="url(#a)" d="M0 18.4c0-.502.347-.911.774-.911H40.21c.173 0 .347.071.483.2l9.66 9.1a.99.99 0 0 1 .29.711.976.976 0 0 1-.29.711l-9.66 9.1a.707.707 0 0 1-.483.2H.774c-.427 0-.774-.409-.774-.91V18.4Z"/><path fill="#fff" d="m25.27 4.386-1.12 1.895h1.09l1.667-1.722-1.636-.173Zm.174 5.323c.143 0 .293 0 .425.01v.208c0 .597-.425 1.033-1.08 1.033-.368 0-.587-.195-.587-.556 0-.523.467-.695 1.242-.695Zm-.207-3.169c-1.516 0-2.419.695-2.494 1.917h1.47c.012-.47.328-.73.937-.73.546 0 .719.219.719.621v.35c-.143-.012-.316-.012-.467-.012-2.005 0-2.81.718-2.81 1.97 0 .913.633 1.526 1.678 1.526.839 0 1.31-.305 1.602-.895v.804h1.58V8.348c0-1.034-.511-1.808-2.211-1.808m-8.358.11 1.81 5.441h1.883l1.832-5.442h-1.557l-.993 3.123c-.086.271-.162.73-.195.982-.023-.252-.087-.707-.174-.982l-.947-3.123h-1.659Zm-2.825-.11c-1.527 0-2.573 1.034-2.573 2.819s1.046 2.841 2.573 2.841 2.562-1.044 2.562-2.84c0-1.798-1.057-2.82-2.562-2.82Zm0 1.32c.666 0 .97.51.97 1.503 0 .992-.304 1.522-.97 1.522-.666 0-.99-.511-.99-1.522 0-1.011.306-1.504.99-1.504ZM5.682 6.65v5.441h1.58V9.107c0-.793.413-1.199.981-1.199.523 0 .677.27.677.827v3.353h1.591V8.397c0-1.177-.666-1.86-1.722-1.86-.775 0-1.23.326-1.528.838v-.73h-1.58v.004Z"/><path fill="#063436" d="m33.623 22.755-1.12 1.894h1.09l1.666-1.721-1.632-.173h-.004Zm.173 5.322c.143 0 .294 0 .425.011v.207c0 .597-.425 1.033-1.08 1.033-.368 0-.586-.195-.586-.556 0-.522.467-.695 1.241-.695Zm-.206-3.169c-1.513 0-2.42.696-2.494 1.917h1.47c.012-.47.328-.729.937-.729.545 0 .718.218.718.62v.35c-.143-.011-.316-.011-.47-.011-2.005 0-2.81.717-2.81 1.969 0 .913.632 1.522 1.678 1.522.839 0 1.309-.304 1.602-.894v.804h1.58v-3.744c0-1.033-.511-1.807-2.212-1.807m-8.496.112v5.443h1.58v-2.985c0-.793.413-1.199.981-1.199.523 0 .677.271.677.827v3.353h1.591v-3.69c0-1.177-.666-1.861-1.723-1.861-.774 0-1.23.327-1.527.838v-.73h-1.58v.004Zm-3.465 1.08c.587 0 .85.401.873.957h-1.884c.12-.665.425-.958 1.011-.958Zm.053-1.189c-1.655 0-2.678 1.132-2.678 2.82 0 1.687 1.012 2.84 2.625 2.84 1.31 0 2.332-.837 2.396-1.935h-1.568c-.034.402-.369.654-.85.654-.677 0-.97-.35-1.023-1.165h3.52c.132-1.642-.586-3.21-2.418-3.21m-3.675-2.07h-1.58v7.622h1.58V22.84Zm-5.044 3.254c.59 0 .85.402.873.959h-1.885c.12-.666.425-.959 1.012-.959Zm.053-1.188c-1.655 0-2.678 1.132-2.678 2.82 0 1.687 1.011 2.84 2.625 2.84 1.309 0 2.332-.837 2.396-1.935h-1.568c-.034.402-.373.654-.85.654-.678 0-.97-.35-1.024-1.165h3.521c.132-1.642-.59-3.21-2.418-3.21m-3.284 5.552v-1.218H7.147l2.55-3.015v-1.206h-4.25v1.206h2.407l-2.561 3.015v1.218h4.446Z"/><path fill="#fff" d="M38.917 42.784v5.443h1.58v-2.928c0-.872.425-1.252.959-1.252.489 0 .643.293.643.86v3.32h1.58v-2.962c.01-.85.436-1.222.959-1.222.489 0 .643.294.643.861v3.319h1.58v-3.69c0-1.177-.598-1.861-1.636-1.861-.685 0-1.34.27-1.753 1.086-.173-.62-.655-1.087-1.385-1.087s-1.275.316-1.59.891v-.781h-1.58v.003Zm-3.506-2.266-1.12 1.894h1.086l1.667-1.721-1.633-.173Zm.173 5.326c.143 0 .294 0 .425.011v.207c0 .597-.425 1.033-1.08 1.033-.368 0-.586-.195-.586-.556 0-.522.47-.695 1.241-.695Zm-.207-3.169c-1.512 0-2.418.696-2.494 1.917h1.471c.011-.47.328-.729.937-.729.545 0 .718.218.718.62v.35c-.143-.011-.316-.011-.47-.011-2.005 0-2.81.717-2.81 1.969 0 .913.632 1.526 1.678 1.526.839 0 1.309-.304 1.602-.895v.809h1.58v-3.744c0-1.034-.512-1.808-2.212-1.808m-6.048.105v5.443h1.58V45.7c0-1.068.62-1.545 1.32-1.545.154 0 .294.023.35.041v-1.522c-1.035 0-1.47.47-1.666 1.207V42.78h-1.58l-.004.003Zm-3.55-.109c-1.524 0-2.57 1.034-2.57 2.82 0 1.785 1.046 2.84 2.57 2.84 1.523 0 2.56-1.044 2.56-2.84 0-1.797-1.056-2.82-2.56-2.82Zm0 1.316c.665 0 .97.511.97 1.503 0 .992-.305 1.526-.97 1.526-.666 0-.994-.51-.994-1.526 0-1.015.305-1.503.993-1.503Zm-5.872.022c.696 0 .993.523.993 1.492 0 .97-.293 1.493-.993 1.493-.775 0-1.09-.643-1.09-1.47 0-.97.368-1.515 1.09-1.515Zm.436-1.338c-.775 0-1.241.436-1.527 1.011v-.902h-1.58v7.74h1.58v-3.192c.282.568.775 1 1.527 1 1.31 0 2.19-1.131 2.19-2.83 0-1.7-.885-2.83-2.19-2.83m-6.44.003c-1.425 0-2.286.805-2.286 1.786 0 1.405 1.177 1.567 2.366 1.699.481.056.827.142.827.522 0 .263-.173.492-.861.492-.61 0-.937-.263-.948-.642H11.52c.045 1.045.805 1.808 2.385 1.808 1.775 0 2.441-.794 2.441-1.854 0-1.371-1.309-1.567-2.343-1.664-.5-.064-.85-.166-.85-.5 0-.264.184-.5.805-.5.522 0 .85.263.86.642h1.472c-.042-1.033-.805-1.785-2.385-1.785m-5.721-2.161-1.121 1.894h1.09l1.667-1.721-1.632-.173h-.004Zm-2.528 2.266v3.691c0 1.177.666 1.86 1.723 1.86.775 0 1.219-.326 1.516-.837v.729h1.58v-5.443h-1.58v2.985c0 .793-.414 1.199-.982 1.199-.511 0-.666-.271-.666-.827v-3.353h-1.59v-.004Z"/><defs><linearGradient id="a" x1="0" x2="50.644" y1="46.506" y2="46.506" gradientUnits="userSpaceOnUse"><stop stop-color="#C6E51B"/><stop offset="1" stop-color="#F3FFB3"/></linearGradient></defs></svg>